TITLE ""
FILE "DISC1Track09.mp3" MP3
  TRACK 01 AUDIO
    TITLE "DISC1Track09_01"
    INDEX 01 00:00:00
  TRACK 02 AUDIO
    TITLE "DISC1Track09_02"
    INDEX 01 00:02:15
  TRACK 03 AUDIO
    TITLE "DISC1Track09_03"
    INDEX 01 00:02:39
  TRACK 04 AUDIO
    TITLE "DISC1Track09_04"
    INDEX 01 00:05:06
  TRACK 05 AUDIO
    TITLE "DISC1Track09_05"
    INDEX 01 00:07:14
  TRACK 06 AUDIO
    TITLE "DISC1Track09_06"
    INDEX 01 00:09:19
  TRACK 07 AUDIO
    TITLE "DISC1Track09_07"
    INDEX 01 00:09:41
  TRACK 08 AUDIO
    TITLE "DISC1Track09_08"
    INDEX 01 00:12:45
  TRACK 09 AUDIO
    TITLE "DISC1Track09_09"
    INDEX 01 00:15:06
  TRACK 10 AUDIO
    TITLE "DISC1Track09_10"
    INDEX 01 00:17:32
  TRACK 11 AUDIO
    TITLE "DISC1Track09_11"
    INDEX 01 00:17:56
  TRACK 12 AUDIO
    TITLE "DISC1Track09_12"
    INDEX 01 00:20:27
  TRACK 13 AUDIO
    TITLE "DISC1Track09_13"
    INDEX 01 00:23:09
  TRACK 14 AUDIO
    TITLE "DISC1Track09_14"
    INDEX 01 00:25:51
  TRACK 15 AUDIO
    TITLE "DISC1Track09_15"
    INDEX 01 00:26:02
  TRACK 16 AUDIO
    TITLE "DISC1Track09_16"
    INDEX 01 00:28:63
  TRACK 17 AUDIO
    TITLE "DISC1Track09_17"
    INDEX 01 00:31:13
  TRACK 18 AUDIO
    TITLE "DISC1Track09_18"
    INDEX 01 00:33:25
  TRACK 19 AUDIO
    TITLE "DISC1Track09_19"
    INDEX 01 00:33:57
  TRACK 20 AUDIO
    TITLE "DISC1Track09_20"
    INDEX 01 00:35:69
  TRACK 21 AUDIO
    TITLE "DISC1Track09_21"
    INDEX 01 00:38:01
  TRACK 22 AUDIO
    TITLE "DISC1Track09_22"
    INDEX 01 00:39:65
  TRACK 23 AUDIO
    TITLE "DISC1Track09_23"
    INDEX 01 00:40:16
  TRACK 24 AUDIO
    TITLE "DISC1Track09_24"
    INDEX 01 00:44:04
  TRACK 25 AUDIO
    TITLE "DISC1Track09_25"
    INDEX 01 00:47:27
  TRACK 26 AUDIO
    TITLE "DISC1Track09_26"
    INDEX 01 00:50:42
  TRACK 27 AUDIO
    TITLE "DISC1Track09_27"
    INDEX 01 00:50:69
  TRACK 28 AUDIO
    TITLE "DISC1Track09_28"
    INDEX 01 00:53:67
  TRACK 29 AUDIO
    TITLE "DISC1Track09_29"
    INDEX 01 00:56:40
  TRACK 30 AUDIO
    TITLE "DISC1Track09_30"
    INDEX 01 00:58:67
  TRACK 31 AUDIO
    TITLE "DISC1Track09_31"
    INDEX 01 00:59:21
  TRACK 32 AUDIO
    TITLE "DISC1Track09_32"
    INDEX 01 01:01:41
  TRACK 33 AUDIO
    TITLE "DISC1Track09_33"
    INDEX 01 01:03:60
  TRACK 34 AUDIO
    TITLE "DISC1Track09_34"
    INDEX 01 01:05:59
  TRACK 35 AUDIO
    TITLE "DISC1Track09_35"
    INDEX 01 01:06:11
  TRACK 36 AUDIO
    TITLE "DISC1Track09_36"
    INDEX 01 01:09:10
  TRACK 37 AUDIO
    TITLE "DISC1Track09_37"
    INDEX 01 01:11:48
  TRACK 38 AUDIO
    TITLE "DISC1Track09_38"
    INDEX 01 01:14:03
  TRACK 39 AUDIO
    TITLE "DISC1Track09_39"
    INDEX 01 01:14:34
  TRACK 40 AUDIO
    TITLE "DISC1Track09_40"
    INDEX 01 01:17:13
  TRACK 41 AUDIO
    TITLE "DISC1Track09_41"
    INDEX 01 01:19:43
  TRACK 42 AUDIO
    TITLE "DISC1Track09_42"
    INDEX 01 01:21:70
